<svg data-v-423bf9ae="" xmlns="http://www.w3.org/2000/svg" viewBox="0 0 438 90" class="iconLeft"><!----><!----><!----><g data-v-423bf9ae="" id="66cce75d-58d1-48ae-bfc0-39bf0b0243c5" fill="white" transform="matrix(5.836575485636349,0,0,5.836575485636349,116.37020172359942,0.23346251939574358)"><path d="M13.20 3.04L10.71 12.67L8.32 12.67L7.01 7.10L7.01 7.10Q6.77 6.12 6.61 5.04L6.61 5.04L6.61 5.04Q6.45 5.94 6.34 6.41L6.34 6.41L6.34 6.41Q6.24 6.88 4.89 12.67L4.89 12.67L2.50 12.67L0.01 3.04L2.06 3.04L3.45 9.26L3.77 10.77L3.77 10.77Q3.96 9.82 4.14 8.95L4.14 8.95L4.14 8.95Q4.32 8.09 5.50 3.04L5.50 3.04L7.76 3.04L8.98 8.17L8.98 8.17Q9.12 8.74 9.46 10.77L9.46 10.77L9.63 9.97L9.99 8.40L11.16 3.04L13.20 3.04ZM21.22 8.97L21.22 8.97L21.22 8.97Q21.22 10.77 20.22 11.79L20.22 11.79L20.22 11.79Q19.22 12.81 17.46 12.81L17.46 12.81L17.46 12.81Q15.73 12.81 14.75 11.79L14.75 11.79L14.75 11.79Q13.76 10.76 13.76 8.97L13.76 8.97L13.76 8.97Q13.76 7.18 14.75 6.16L14.75 6.16L14.75 6.16Q15.73 5.14 17.50 5.14L17.50 5.14L17.50 5.14Q19.31 5.14 20.27 6.13L20.27 6.13L20.27 6.13Q21.22 7.12 21.22 8.97ZM19.21 8.97L19.21 8.97L19.21 8.97Q19.21 7.65 18.78 7.05L18.78 7.05L18.78 7.05Q18.35 6.46 17.53 6.46L17.53 6.46L17.53 6.46Q15.78 6.46 15.78 8.97L15.78 8.97L15.78 8.97Q15.78 10.21 16.20 10.85L16.20 10.85L16.20 10.85Q16.63 11.50 17.44 11.50L17.44 11.50L17.44 11.50Q19.21 11.50 19.21 8.97ZM29.00 12.67L27.10 12.67L27.10 8.52L27.10 8.52Q27.10 6.58 25.98 6.58L25.98 6.58L25.98 6.58Q25.40 6.58 25.03 7.17L25.03 7.17L25.03 7.17Q24.66 7.77 24.66 8.71L24.66 8.71L24.66 12.67L22.74 12.67L22.74 6.93L22.74 6.93Q22.74 6.34 22.73 5.96L22.73 5.96L22.73 5.96Q22.71 5.58 22.69 5.28L22.69 5.28L24.52 5.28L24.52 5.28Q24.54 5.41 24.58 5.97L24.58 5.97L24.58 5.97Q24.61 6.54 24.61 6.75L24.61 6.75L24.64 6.75L24.64 6.75Q24.99 5.90 25.52 5.52L25.52 5.52L25.52 5.52Q26.05 5.13 26.79 5.13L26.79 5.13L26.79 5.13Q28.49 5.13 28.85 6.75L28.85 6.75L28.89 6.75L28.89 6.75Q29.26 5.89 29.79 5.51L29.79 5.51L29.79 5.51Q30.32 5.13 31.13 5.13L31.13 5.13L31.13 5.13Q32.21 5.13 32.78 5.87L32.78 5.87L32.78 5.87Q33.35 6.60 33.35 7.98L33.35 7.98L33.35 12.67L31.44 12.67L31.44 8.52L31.44 8.52Q31.44 6.58 30.32 6.58L30.32 6.58L30.32 6.58Q29.76 6.58 29.40 7.12L29.40 7.12L29.40 7.12Q29.04 7.66 29.00 8.62L29.00 8.62L29.00 12.67ZM42.19 8.95L42.19 8.95L42.19 8.95Q42.19 10.78 41.46 11.80L41.46 11.80L41.46 11.80Q40.72 12.81 39.35 12.81L39.35 12.81L39.35 12.81Q38.57 12.81 37.99 12.47L37.99 12.47L37.99 12.47Q37.42 12.13 37.11 11.48L37.11 11.48L37.10 11.48L37.10 11.48Q37.10 11.72 37.07 12.14L37.07 12.14L37.07 12.14Q37.04 12.56 37.00 12.67L37.00 12.67L35.14 12.67L35.14 12.67Q35.19 12.04 35.19 10.99L35.19 10.99L35.19 2.53L37.11 2.53L37.11 5.36L37.08 6.56L37.11 6.56L37.11 6.56Q37.76 5.14 39.48 5.14L39.48 5.14L39.48 5.14Q40.79 5.14 41.49 6.14L41.49 6.14L41.49 6.14Q42.19 7.13 42.19 8.95ZM40.19 8.95L40.19 8.95L40.19 8.95Q40.19 7.69 39.82 7.08L39.82 7.08L39.82 7.08Q39.45 6.47 38.68 6.47L38.68 6.47L38.68 6.47Q37.90 6.47 37.49 7.13L37.49 7.13L37.49 7.13Q37.08 7.78 37.08 9.01L37.08 9.01L37.08 9.01Q37.08 10.19 37.48 10.84L37.48 10.84L37.48 10.84Q37.88 11.50 38.66 11.50L38.66 11.50L38.66 11.50Q40.19 11.50 40.19 8.95ZM45.45 12.81L45.45 12.81L45.45 12.81Q44.38 12.81 43.78 12.23L43.78 12.23L43.78 12.23Q43.18 11.64 43.18 10.58L43.18 10.58L43.18 10.58Q43.18 9.43 43.92 8.83L43.92 8.83L43.92 8.83Q44.67 8.23 46.09 8.22L46.09 8.22L47.69 8.19L47.69 7.81L47.69 7.81Q47.69 7.09 47.43 6.74L47.43 6.74L47.43 6.74Q47.18 6.38 46.61 6.38L46.61 6.38L46.61 6.38Q46.07 6.38 45.82 6.63L45.82 6.63L45.82 6.63Q45.58 6.87 45.51 7.43L45.51 7.43L43.51 7.33L43.51 7.33Q43.70 6.25 44.50 5.70L44.50 5.70L44.50 5.70Q45.30 5.14 46.69 5.14L46.69 5.14L46.69 5.14Q48.09 5.14 48.85 5.83L48.85 5.83L48.85 5.83Q49.61 6.52 49.61 7.79L49.61 7.79L49.61 10.49L49.61 10.49Q49.61 11.11 49.75 11.34L49.75 11.34L49.75 11.34Q49.89 11.58 50.22 11.58L50.22 11.58L50.22 11.58Q50.44 11.58 50.64 11.54L50.64 11.54L50.64 12.58L50.64 12.58Q50.47 12.62 50.33 12.65L50.33 12.65L50.33 12.65Q50.20 12.69 50.06 12.71L50.06 12.71L50.06 12.71Q49.92 12.73 49.77 12.74L49.77 12.74L49.77 12.74Q49.62 12.76 49.41 12.76L49.41 12.76L49.41 12.76Q48.69 12.76 48.34 12.40L48.34 12.40L48.34 12.40Q48.00 12.04 47.93 11.35L47.93 11.35L47.89 11.35L47.89 11.35Q47.08 12.81 45.45 12.81ZM47.69 9.63L47.69 9.25L46.70 9.26L46.70 9.26Q46.03 9.29 45.75 9.41L45.75 9.41L45.75 9.41Q45.47 9.53 45.33 9.78L45.33 9.78L45.33 9.78Q45.18 10.02 45.18 10.43L45.18 10.43L45.18 10.43Q45.18 10.96 45.42 11.21L45.42 11.21L45.42 11.21Q45.66 11.47 46.07 11.47L46.07 11.47L46.07 11.47Q46.52 11.47 46.89 11.22L46.89 11.22L46.89 11.22Q47.26 10.98 47.48 10.54L47.48 10.54L47.48 10.54Q47.69 10.11 47.69 9.63L47.69 9.63ZM53.42 12.80L53.42 12.80L53.42 12.80Q52.58 12.80 52.12 12.34L52.12 12.34L52.12 12.34Q51.66 11.87 51.66 10.94L51.66 10.94L51.66 6.58L50.72 6.58L50.72 5.28L51.75 5.28L52.36 3.54L53.56 3.54L53.56 5.28L54.96 5.28L54.96 6.58L53.56 6.58L53.56 10.42L53.56 10.42Q53.56 10.96 53.76 11.21L53.76 11.21L53.76 11.21Q53.97 11.47 54.40 11.47L54.40 11.47L54.40 11.47Q54.63 11.47 55.04 11.38L55.04 11.38L55.04 12.56L55.04 12.56Q54.33 12.80 53.42 12.80Z"></path></g><!----><g data-v-423bf9ae="" id="1116d361-2880-4f3d-9518-1051465a2858" transform="matrix(3.2142857142857144,0,0,3.2142857142857144,-15.285714285714292,-19.285714285714292)" stroke="none" fill="white"><path fill-rule="evenodd" clip-rule="evenodd" d="M34 10.9c.6-.2 1-.8 1-1.4 0-.8-.7-1.5-1.5-1.5S32 8.7 32 9.5c0 .7.4 1.2 1 1.4v5.3c-.1 0-.2-.1-.3-.1C31.3 10.3 26.2 6 20 6 13.8 6 8.7 10.3 7.3 16.1 6 16.4 5 17.6 5 19s1 2.6 2.3 2.9c.5 2 1.4 3.8 2.7 5.4V30s2 4 10 4 10-4 10-4v-2.7c1.3-1.5 2.2-3.4 2.7-5.4C34 21.6 35 20.4 35 19c0-.9-.4-1.7-1-2.2v-5.9zm-2.9 11c-.5 2-1.5 3.7-2.9 5.1-2.1 2.2-5 0-8.2 0-3.2 0-6.2 2.2-8.2 0-1.4-1.4-2.4-3.2-2.9-5.1-.3-1-.4-1.9-.4-2.9s.1-1.9.4-2.9c1.3-5 5.8-6.6 11.1-6.6 5.4 0 9.9 1.7 11.1 6.6.2.9.4 1.9.4 2.9s-.1 1.9-.4 2.9zM20 11.9c-4 0-7.3 1.3-8.3 5-.2.7-.3 1.4-.3 2.1 0 .7.1 1.4.3 2.1l.1.2c2-1.6 5.3-3.4 9.7-3.4-4.2 1.7-6.9 4.1-8.4 6 .3.4.5.7.8 1 .5.5 1.1.7 1.7.7 1.3 0 2.8-.7 4.4-.7 1.6 0 3.1.7 4.4.7.6 0 1.2-.2 1.7-.7 1-1.1 1.8-2.4 2.1-3.8.2-.7.3-1.4.3-2.1 0-.7-.1-1.4-.3-2.1-.9-3.8-4.2-5-8.2-5z"></path></g><!----></svg>